# Blender v3.0.0 OBJ File: ''
# www.blender.org
mtllib collision_cube.mtl
o 立方体.003
v -1.010000 0.990000 1.000000
v -1.010000 1.010000 1.000000
v -1.010000 0.990000 -1.000000
v -1.010000 1.010000 -1.000000
v -0.990000 0.990000 1.000000
v -0.990000 1.010000 1.000000
v -0.990000 0.990000 -1.000000
v -0.990000 1.010000 -1.000000
v -1.010000 -1.010000 1.000000
v -1.010000 -0.990000 1.000000
v -1.010000 -1.010000 -1.000000
v -1.010000 -0.990000 -1.000000
v -0.990000 -1.010000 1.000000
v -0.990000 -0.990000 1.000000
v -0.990000 -1.010000 -1.000000
v -0.990000 -0.990000 -1.000000
v 0.990000 -1.000000 0.990000
v 0.990000 -1.000000 1.010000
v 0.990000 1.000000 0.990000
v 0.990000 1.000000 1.010000
v 1.010000 -1.000000 0.990000
v 1.010000 -1.000000 1.010000
v 1.010000 1.000000 0.990000
v 1.010000 1.000000 1.010000
v 0.990000 0.990000 1.000000
v 0.990000 1.010000 1.000000
v 0.990000 0.990000 -1.000000
v 0.990000 1.010000 -1.000000
v 1.010000 0.990000 1.000000
v 1.010000 1.010000 1.000000
v 1.010000 0.990000 -1.000000
v 1.010000 1.010000 -1.000000
v 1.000000 -1.010000 1.010000
v 1.000000 -0.990000 1.010000
v -1.000000 -1.010000 1.010000
v -1.000000 -0.990000 1.010000
v 1.000000 -1.010000 0.990000
v 1.000000 -0.990000 0.990000
v -1.000000 -1.010000 0.990000
v -1.000000 -0.990000 0.990000
v 1.000000 -1.010000 -0.990000
v 1.000000 -0.990000 -0.990000
v -1.000000 -1.010000 -0.990000
v -1.000000 -0.990000 -0.990000
v 1.000000 -1.010000 -1.010000
v 1.000000 -0.990000 -1.010000
v -1.000000 -1.010000 -1.010000
v -1.000000 -0.990000 -1.010000
v 1.000000 0.990000 -0.990000
v 1.000000 1.010000 -0.990000
v -1.000000 0.990000 -0.990000
v -1.000000 1.010000 -0.990000
v 1.000000 0.990000 -1.010000
v 1.000000 1.010000 -1.010000
v -1.000000 0.990000 -1.010000
v -1.000000 1.010000 -1.010000
v 1.000000 0.990000 1.010000
v 1.000000 1.010000 1.010000
v -1.000000 0.990000 1.010000
v -1.000000 1.010000 1.010000
v 1.000000 0.990000 0.990000
v 1.000000 1.010000 0.990000
v -1.000000 0.990000 0.990000
v -1.000000 1.010000 0.990000
v -1.010000 -1.000000 -1.010000
v -1.010000 -1.000000 -0.990000
v -1.010000 1.000000 -1.010000
v -1.010000 1.000000 -0.990000
v -0.990000 -1.000000 -1.010000
v -0.990000 -1.000000 -0.990000
v -0.990000 1.000000 -1.010000
v -0.990000 1.000000 -0.990000
v 0.990000 -1.000000 -1.010000
v 0.990000 -1.000000 -0.990000
v 0.990000 1.000000 -1.010000
v 0.990000 1.000000 -0.990000
v 1.010000 -1.000000 -1.010000
v 1.010000 -1.000000 -0.990000
v 1.010000 1.000000 -1.010000
v 1.010000 1.000000 -0.990000
v -1.010000 -1.000000 0.990000
v -1.010000 -1.000000 1.010000
v -1.010000 1.000000 0.990000
v -1.010000 1.000000 1.010000
v -0.990000 -1.000000 0.990000
v -0.990000 -1.000000 1.010000
v -0.990000 1.000000 0.990000
v -0.990000 1.000000 1.010000
v 0.990000 -1.010000 1.000000
v 0.990000 -0.990000 1.000000
v 0.990000 -1.010000 -1.000000
v 0.990000 -0.990000 -1.000000
v 1.010000 -1.010000 1.000000
v 1.010000 -0.990000 1.000000
v 1.010000 -1.010000 -1.000000
v 1.010000 -0.990000 -1.000000
vt 0.375000 0.000000
vt 0.625000 0.000000
vt 0.625000 0.250000
vt 0.375000 0.250000
vt 0.625000 0.500000
vt 0.375000 0.500000
vt 0.625000 0.750000
vt 0.375000 0.750000
vt 0.625000 1.000000
vt 0.375000 1.000000
vt 0.125000 0.500000
vt 0.125000 0.750000
vt 0.875000 0.500000
vt 0.875000 0.750000
vt 0.375000 0.000000
vt 0.625000 0.000000
vt 0.625000 0.250000
vt 0.375000 0.250000
vt 0.625000 0.500000
vt 0.375000 0.500000
vt 0.625000 0.750000
vt 0.375000 0.750000
vt 0.625000 1.000000
vt 0.375000 1.000000
vt 0.125000 0.500000
vt 0.125000 0.750000
vt 0.875000 0.500000
vt 0.875000 0.750000
vt 0.375000 0.000000
vt 0.625000 0.000000
vt 0.625000 0.250000
vt 0.375000 0.250000
vt 0.625000 0.500000
vt 0.375000 0.500000
vt 0.625000 0.750000
vt 0.375000 0.750000
vt 0.625000 1.000000
vt 0.375000 1.000000
vt 0.125000 0.500000
vt 0.125000 0.750000
vt 0.875000 0.500000
vt 0.875000 0.750000
vt 0.375000 0.000000
vt 0.625000 0.000000
vt 0.625000 0.250000
vt 0.375000 0.250000
vt 0.625000 0.500000
vt 0.375000 0.500000
vt 0.625000 0.750000
vt 0.375000 0.750000
vt 0.625000 1.000000
vt 0.375000 1.000000
vt 0.125000 0.500000
vt 0.125000 0.750000
vt 0.875000 0.500000
vt 0.875000 0.750000
vt 0.375000 0.000000
vt 0.625000 0.000000
vt 0.625000 0.250000
vt 0.375000 0.250000
vt 0.625000 0.500000
vt 0.375000 0.500000
vt 0.625000 0.750000
vt 0.375000 0.750000
vt 0.625000 1.000000
vt 0.375000 1.000000
vt 0.125000 0.500000
vt 0.125000 0.750000
vt 0.875000 0.500000
vt 0.875000 0.750000
vt 0.375000 0.000000
vt 0.625000 0.000000
vt 0.625000 0.250000
vt 0.375000 0.250000
vt 0.625000 0.500000
vt 0.375000 0.500000
vt 0.625000 0.750000
vt 0.375000 0.750000
vt 0.625000 1.000000
vt 0.375000 1.000000
vt 0.125000 0.500000
vt 0.125000 0.750000
vt 0.875000 0.500000
vt 0.875000 0.750000
vt 0.375000 0.000000
vt 0.625000 0.000000
vt 0.625000 0.250000
vt 0.375000 0.250000
vt 0.625000 0.500000
vt 0.375000 0.500000
vt 0.625000 0.750000
vt 0.375000 0.750000
vt 0.625000 1.000000
vt 0.375000 1.000000
vt 0.125000 0.500000
vt 0.125000 0.750000
vt 0.875000 0.500000
vt 0.875000 0.750000
vt 0.375000 0.000000
vt 0.625000 0.000000
vt 0.625000 0.250000
vt 0.375000 0.250000
vt 0.625000 0.500000
vt 0.375000 0.500000
vt 0.625000 0.750000
vt 0.375000 0.750000
vt 0.625000 1.000000
vt 0.375000 1.000000
vt 0.125000 0.500000
vt 0.125000 0.750000
vt 0.875000 0.500000
vt 0.875000 0.750000
vt 0.375000 0.000000
vt 0.625000 0.000000
vt 0.625000 0.250000
vt 0.375000 0.250000
vt 0.625000 0.500000
vt 0.375000 0.500000
vt 0.625000 0.750000
vt 0.375000 0.750000
vt 0.625000 1.000000
vt 0.375000 1.000000
vt 0.125000 0.500000
vt 0.125000 0.750000
vt 0.875000 0.500000
vt 0.875000 0.750000
vt 0.375000 0.000000
vt 0.625000 0.000000
vt 0.625000 0.250000
vt 0.375000 0.250000
vt 0.625000 0.500000
vt 0.375000 0.500000
vt 0.625000 0.750000
vt 0.375000 0.750000
vt 0.625000 1.000000
vt 0.375000 1.000000
vt 0.125000 0.500000
vt 0.125000 0.750000
vt 0.875000 0.500000
vt 0.875000 0.750000
vt 0.375000 0.000000
vt 0.625000 0.000000
vt 0.625000 0.250000
vt 0.375000 0.250000
vt 0.625000 0.500000
vt 0.375000 0.500000
vt 0.625000 0.750000
vt 0.375000 0.750000
vt 0.625000 1.000000
vt 0.375000 1.000000
vt 0.125000 0.500000
vt 0.125000 0.750000
vt 0.875000 0.500000
vt 0.875000 0.750000
vt 0.375000 0.000000
vt 0.625000 0.000000
vt 0.625000 0.250000
vt 0.375000 0.250000
vt 0.625000 0.500000
vt 0.375000 0.500000
vt 0.625000 0.750000
vt 0.375000 0.750000
vt 0.625000 1.000000
vt 0.375000 1.000000
vt 0.125000 0.500000
vt 0.125000 0.750000
vt 0.875000 0.500000
vt 0.875000 0.750000
vn -1.0000 0.0000 0.0000
vn 0.0000 0.0000 -1.0000
vn 1.0000 0.0000 0.0000
vn 0.0000 0.0000 1.0000
vn 0.0000 -1.0000 0.0000
vn 0.0000 1.0000 0.0000
usemtl マテリアル
s off
f 1/1/1 2/2/1 4/3/1 3/4/1
f 3/4/2 4/3/2 8/5/2 7/6/2
f 7/6/3 8/5/3 6/7/3 5/8/3
f 5/8/4 6/7/4 2/9/4 1/10/4
f 3/11/5 7/6/5 5/8/5 1/12/5
f 8/5/6 4/13/6 2/14/6 6/7/6
f 9/15/1 10/16/1 12/17/1 11/18/1
f 11/18/2 12/17/2 16/19/2 15/20/2
f 15/20/3 16/19/3 14/21/3 13/22/3
f 13/22/4 14/21/4 10/23/4 9/24/4
f 11/25/5 15/20/5 13/22/5 9/26/5
f 16/19/6 12/27/6 10/28/6 14/21/6
f 17/29/1 18/30/1 20/31/1 19/32/1
f 19/32/6 20/31/6 24/33/6 23/34/6
f 23/34/3 24/33/3 22/35/3 21/36/3
f 21/36/5 22/35/5 18/37/5 17/38/5
f 19/39/2 23/34/2 21/36/2 17/40/2
f 24/33/4 20/41/4 18/42/4 22/35/4
f 25/43/1 26/44/1 28/45/1 27/46/1
f 27/46/2 28/45/2 32/47/2 31/48/2
f 31/48/3 32/47/3 30/49/3 29/50/3
f 29/50/4 30/49/4 26/51/4 25/52/4
f 27/53/5 31/48/5 29/50/5 25/54/5
f 32/47/6 28/55/6 26/56/6 30/49/6
f 33/57/4 34/58/4 36/59/4 35/60/4
f 35/60/1 36/59/1 40/61/1 39/62/1
f 39/62/2 40/61/2 38/63/2 37/64/2
f 37/64/3 38/63/3 34/65/3 33/66/3
f 35/67/5 39/62/5 37/64/5 33/68/5
f 40/61/6 36/69/6 34/70/6 38/63/6
f 41/71/4 42/72/4 44/73/4 43/74/4
f 43/74/1 44/73/1 48/75/1 47/76/1
f 47/76/2 48/75/2 46/77/2 45/78/2
f 45/78/3 46/77/3 42/79/3 41/80/3
f 43/81/5 47/76/5 45/78/5 41/82/5
f 48/75/6 44/83/6 42/84/6 46/77/6
f 49/85/4 50/86/4 52/87/4 51/88/4
f 51/88/1 52/87/1 56/89/1 55/90/1
f 55/90/2 56/89/2 54/91/2 53/92/2
f 53/92/3 54/91/3 50/93/3 49/94/3
f 51/95/5 55/90/5 53/92/5 49/96/5
f 56/89/6 52/97/6 50/98/6 54/91/6
f 57/99/4 58/100/4 60/101/4 59/102/4
f 59/102/1 60/101/1 64/103/1 63/104/1
f 63/104/2 64/103/2 62/105/2 61/106/2
f 61/106/3 62/105/3 58/107/3 57/108/3
f 59/109/5 63/104/5 61/106/5 57/110/5
f 64/103/6 60/111/6 58/112/6 62/105/6
f 65/113/1 66/114/1 68/115/1 67/116/1
f 67/116/6 68/115/6 72/117/6 71/118/6
f 71/118/3 72/117/3 70/119/3 69/120/3
f 69/120/5 70/119/5 66/121/5 65/122/5
f 67/123/2 71/118/2 69/120/2 65/124/2
f 72/117/4 68/125/4 66/126/4 70/119/4
f 73/127/1 74/128/1 76/129/1 75/130/1
f 75/130/6 76/129/6 80/131/6 79/132/6
f 79/132/3 80/131/3 78/133/3 77/134/3
f 77/134/5 78/133/5 74/135/5 73/136/5
f 75/137/2 79/132/2 77/134/2 73/138/2
f 80/131/4 76/139/4 74/140/4 78/133/4
f 81/141/1 82/142/1 84/143/1 83/144/1
f 83/144/6 84/143/6 88/145/6 87/146/6
f 87/146/3 88/145/3 86/147/3 85/148/3
f 85/148/5 86/147/5 82/149/5 81/150/5
f 83/151/2 87/146/2 85/148/2 81/152/2
f 88/145/4 84/153/4 82/154/4 86/147/4
f 89/155/1 90/156/1 92/157/1 91/158/1
f 91/158/2 92/157/2 96/159/2 95/160/2
f 95/160/3 96/159/3 94/161/3 93/162/3
f 93/162/4 94/161/4 90/163/4 89/164/4
f 91/165/5 95/160/5 93/162/5 89/166/5
f 96/159/6 92/167/6 90/168/6 94/161/6
