# Blender v3.0.0 OBJ File: ''
# www.blender.org
mtllib collision_sphere.mtl
o 円.001
v -0.027912 -0.052922 -0.999220
v -0.027528 0.142629 -0.985466
v -0.026086 0.331738 -0.933840
v -0.023641 0.507137 -0.846328
v -0.020288 0.662087 -0.726292
v -0.016155 0.790633 -0.578344
v -0.011402 0.887834 -0.408172
v -0.006210 0.949956 -0.222313
v -0.000780 0.974610 -0.027911
v 0.004681 0.960850 0.167563
v 0.009961 0.909205 0.356598
v 0.014859 0.821658 0.531930
v 0.019186 0.701575 0.686819
v 0.022775 0.553570 0.815315
v 0.025489 0.383331 0.912478
v 0.027224 0.197400 0.974575
v 0.027912 0.002922 0.999220
v 0.027528 -0.192629 0.985466
v 0.026086 -0.381738 0.933840
v 0.023641 -0.557137 0.846328
v 0.020288 -0.712087 0.726292
v 0.016155 -0.840633 0.578345
v 0.011402 -0.937834 0.408172
v 0.006210 -0.999956 0.222313
v 0.000780 -1.024610 0.027911
v -0.004681 -1.010850 -0.167563
v -0.009961 -0.959205 -0.356599
v -0.014859 -0.871658 -0.531930
v -0.019186 -0.751575 -0.686819
v -0.022775 -0.603570 -0.815315
v -0.025489 -0.433331 -0.912478
v -0.027224 -0.247400 -0.974575
v 0.022068 -0.052922 -1.000616
v 0.022452 0.142629 -0.986862
v 0.023895 0.331738 -0.935237
v 0.026339 0.507137 -0.847724
v 0.029692 0.662087 -0.727688
v 0.033825 0.790633 -0.579741
v 0.038579 0.887834 -0.409568
v 0.043771 0.949956 -0.223709
v 0.049201 0.974610 -0.029307
v 0.054661 0.960850 0.166167
v 0.059942 0.909205 0.355202
v 0.064840 0.821658 0.530534
v 0.069166 0.701575 0.685423
v 0.072756 0.553570 0.813919
v 0.075470 0.383331 0.911082
v 0.077204 0.197400 0.973179
v 0.077893 0.002922 0.997824
v 0.077509 -0.192629 0.984070
v 0.076066 -0.381738 0.932444
v 0.073622 -0.557137 0.844932
v 0.070269 -0.712087 0.724895
v 0.066136 -0.840633 0.576948
v 0.061382 -0.937834 0.406776
v 0.056190 -0.999956 0.220917
v 0.050760 -1.024610 0.026515
v 0.045300 -1.010850 -0.168960
v 0.040019 -0.959205 -0.357995
v 0.035121 -0.871658 -0.533326
v 0.030795 -0.751575 -0.688215
v 0.027205 -0.603570 -0.816711
v 0.024491 -0.433331 -0.913874
v 0.022757 -0.247400 -0.975972
v -0.000000 -0.025000 -1.000000
v -0.195090 -0.025000 -0.980785
v -0.382683 -0.025000 -0.923880
v -0.555570 -0.025000 -0.831470
v -0.707107 -0.025000 -0.707107
v -0.831470 -0.025000 -0.555570
v -0.923879 -0.025000 -0.382683
v -0.980785 -0.025000 -0.195090
v -1.000000 -0.025000 0.000000
v -0.980785 -0.025000 0.195090
v -0.923880 -0.025000 0.382683
v -0.831470 -0.025000 0.555570
v -0.707107 -0.025000 0.707107
v -0.555570 -0.025000 0.831470
v -0.382683 -0.025000 0.923880
v -0.195090 -0.025000 0.980785
v 0.000000 -0.025000 1.000000
v 0.195090 -0.025000 0.980785
v 0.382683 -0.025000 0.923880
v 0.555570 -0.025000 0.831469
v 0.707107 -0.025000 0.707107
v 0.831469 -0.025000 0.555570
v 0.923880 -0.025000 0.382684
v 0.980785 -0.025000 0.195090
v 1.000000 -0.025000 -0.000000
v 0.980785 -0.025000 -0.195090
v 0.923879 -0.025000 -0.382684
v 0.831470 -0.025000 -0.555570
v 0.707107 -0.025000 -0.707107
v 0.555570 -0.025000 -0.831470
v 0.382683 -0.025000 -0.923880
v 0.195090 -0.025000 -0.980785
v 0.000000 0.025000 -1.000000
v -0.195090 0.025000 -0.980785
v -0.382683 0.025000 -0.923880
v -0.555570 0.025000 -0.831470
v -0.707107 0.025000 -0.707107
v -0.831470 0.025000 -0.555570
v -0.923879 0.025000 -0.382683
v -0.980785 0.025000 -0.195090
v -1.000000 0.025000 0.000000
v -0.980785 0.025000 0.195090
v -0.923880 0.025000 0.382683
v -0.831470 0.025000 0.555570
v -0.707107 0.025000 0.707107
v -0.555570 0.025000 0.831470
v -0.382683 0.025000 0.923880
v -0.195090 0.025000 0.980785
v 0.000000 0.025000 1.000000
v 0.195090 0.025000 0.980785
v 0.382683 0.025000 0.923880
v 0.555570 0.025000 0.831470
v 0.707107 0.025000 0.707107
v 0.831469 0.025000 0.555570
v 0.923880 0.025000 0.382684
v 0.980785 0.025000 0.195090
v 1.000000 0.025000 -0.000000
v 0.980785 0.025000 -0.195090
v 0.923879 0.025000 -0.382684
v 0.831470 0.025000 -0.555570
v 0.707107 0.025000 -0.707107
v 0.555570 0.025000 -0.831470
v 0.382683 0.025000 -0.923880
v 0.195090 0.025000 -0.980785
v -0.999220 -0.052922 0.027912
v -0.985466 0.142629 0.027528
v -0.933840 0.331738 0.026086
v -0.846328 0.507137 0.023641
v -0.726292 0.662087 0.020288
v -0.578344 0.790633 0.016155
v -0.408172 0.887834 0.011402
v -0.222313 0.949956 0.006210
v -0.027911 0.974610 0.000780
v 0.167563 0.960850 -0.004681
v 0.356598 0.909205 -0.009961
v 0.531930 0.821658 -0.014859
v 0.686819 0.701575 -0.019186
v 0.815315 0.553570 -0.022775
v 0.912478 0.383331 -0.025489
v 0.974575 0.197400 -0.027224
v 0.999220 0.002922 -0.027912
v 0.985466 -0.192629 -0.027528
v 0.933840 -0.381738 -0.026086
v 0.846328 -0.557137 -0.023641
v 0.726292 -0.712087 -0.020288
v 0.578345 -0.840633 -0.016155
v 0.408172 -0.937834 -0.011402
v 0.222313 -0.999956 -0.006210
v 0.027911 -1.024610 -0.000780
v -0.167563 -1.010850 0.004681
v -0.356599 -0.959205 0.009961
v -0.531930 -0.871658 0.014859
v -0.686819 -0.751575 0.019186
v -0.815315 -0.603570 0.022775
v -0.912478 -0.433331 0.025489
v -0.974575 -0.247400 0.027224
v -1.000616 -0.052922 -0.022068
v -0.986862 0.142629 -0.022452
v -0.935236 0.331738 -0.023895
v -0.847724 0.507137 -0.026339
v -0.727688 0.662087 -0.029692
v -0.579740 0.790633 -0.033825
v -0.409568 0.887834 -0.038579
v -0.223709 0.949956 -0.043771
v -0.029307 0.974610 -0.049201
v 0.166167 0.960850 -0.054661
v 0.355202 0.909205 -0.059942
v 0.530534 0.821658 -0.064840
v 0.685423 0.701575 -0.069166
v 0.813919 0.553570 -0.072756
v 0.911082 0.383331 -0.075470
v 0.973179 0.197400 -0.077204
v 0.997824 0.002922 -0.077893
v 0.984070 -0.192629 -0.077509
v 0.932444 -0.381738 -0.076066
v 0.844932 -0.557137 -0.073622
v 0.724895 -0.712087 -0.070269
v 0.576948 -0.840633 -0.066136
v 0.406776 -0.937834 -0.061382
v 0.220917 -0.999955 -0.056190
v 0.026515 -1.024610 -0.050760
v -0.168960 -1.010850 -0.045300
v -0.357995 -0.959205 -0.040019
v -0.533326 -0.871658 -0.035121
v -0.688215 -0.751575 -0.030795
v -0.816711 -0.603570 -0.027205
v -0.913874 -0.433331 -0.024491
v -0.975972 -0.247400 -0.022757
vt 0.000000 0.000000
vt 0.000000 0.000000
vt 0.000000 0.000000
vt 0.000000 0.000000
vt 0.000000 0.000000
vt 0.000000 0.000000
vt 0.000000 0.000000
vt 0.000000 0.000000
vt 0.000000 0.000000
vt 0.000000 0.000000
vt 0.000000 0.000000
vt 0.000000 0.000000
vt 0.000000 0.000000
vt 0.000000 0.000000
vt 0.000000 0.000000
vt 0.000000 0.000000
vt 0.000000 0.000000
vt 0.000000 0.000000
vt 0.000000 0.000000
vt 0.000000 0.000000
vt 0.000000 0.000000
vt 0.000000 0.000000
vt 0.000000 0.000000
vt 0.000000 0.000000
vt 0.000000 0.000000
vt 0.000000 0.000000
vt 0.000000 0.000000
vt 0.000000 0.000000
vt 0.000000 0.000000
vt 0.000000 0.000000
vt 0.000000 0.000000
vt 0.000000 0.000000
vt 0.000000 0.000000
vt 0.000000 0.000000
vt 0.000000 0.000000
vt 0.000000 0.000000
vt 0.000000 0.000000
vt 0.000000 0.000000
vt 0.000000 0.000000
vt 0.000000 0.000000
vt 0.000000 0.000000
vt 0.000000 0.000000
vt 0.000000 0.000000
vt 0.000000 0.000000
vt 0.000000 0.000000
vt 0.000000 0.000000
vt 0.000000 0.000000
vt 0.000000 0.000000
vt 0.000000 0.000000
vt 0.000000 0.000000
vt 0.000000 0.000000
vt 0.000000 0.000000
vt 0.000000 0.000000
vt 0.000000 0.000000
vt 0.000000 0.000000
vt 0.000000 0.000000
vt 0.000000 0.000000
vt 0.000000 0.000000
vt 0.000000 0.000000
vt 0.000000 0.000000
vt 0.000000 0.000000
vt 0.000000 0.000000
vt 0.000000 0.000000
vt 0.000000 0.000000
vt 0.000000 0.000000
vt 0.000000 0.000000
vt 0.000000 0.000000
vt 0.000000 0.000000
vt 0.000000 0.000000
vt 0.000000 0.000000
vt 0.000000 0.000000
vt 0.000000 0.000000
vt 0.000000 0.000000
vt 0.000000 0.000000
vt 0.000000 0.000000
vt 0.000000 0.000000
vt 0.000000 0.000000
vt 0.000000 0.000000
vt 0.000000 0.000000
vt 0.000000 0.000000
vt 0.000000 0.000000
vt 0.000000 0.000000
vt 0.000000 0.000000
vt 0.000000 0.000000
vt 0.000000 0.000000
vt 0.000000 0.000000
vt 0.000000 0.000000
vt 0.000000 0.000000
vt 0.000000 0.000000
vt 0.000000 0.000000
vt 0.000000 0.000000
vt 0.000000 0.000000
vt 0.000000 0.000000
vt 0.000000 0.000000
vt 0.000000 0.000000
vt 0.000000 0.000000
vt 0.000000 0.000000
vt 0.000000 0.000000
vt 0.000000 0.000000
vt 0.000000 0.000000
vt 0.000000 0.000000
vt 0.000000 0.000000
vt 0.000000 0.000000
vt 0.000000 0.000000
vt 0.000000 0.000000
vt 0.000000 0.000000
vt 0.000000 0.000000
vt 0.000000 0.000000
vt 0.000000 0.000000
vt 0.000000 0.000000
vt 0.000000 0.000000
vt 0.000000 0.000000
vt 0.000000 0.000000
vt 0.000000 0.000000
vt 0.000000 0.000000
vt 0.000000 0.000000
vt 0.000000 0.000000
vt 0.000000 0.000000
vt 0.000000 0.000000
vt 0.000000 0.000000
vt 0.000000 0.000000
vt 0.000000 0.000000
vt 0.000000 0.000000
vt 0.000000 0.000000
vt 0.000000 0.000000
vt 0.000000 0.000000
vt 0.000000 0.000000
vt 0.000000 0.000000
vt 0.000000 0.000000
vt 0.000000 0.000000
vt 0.000000 0.000000
vt 0.000000 0.000000
vt 0.000000 0.000000
vt 0.000000 0.000000
vt 0.000000 0.000000
vt 0.000000 0.000000
vt 0.000000 0.000000
vt 0.000000 0.000000
vt 0.000000 0.000000
vt 0.000000 0.000000
vt 0.000000 0.000000
vt 0.000000 0.000000
vt 0.000000 0.000000
vt 0.000000 0.000000
vt 0.000000 0.000000
vt 0.000000 0.000000
vt 0.000000 0.000000
vt 0.000000 0.000000
vt 0.000000 0.000000
vt 0.000000 0.000000
vt 0.000000 0.000000
vt 0.000000 0.000000
vt 0.000000 0.000000
vt 0.000000 0.000000
vt 0.000000 0.000000
vt 0.000000 0.000000
vt 0.000000 0.000000
vt 0.000000 0.000000
vt 0.000000 0.000000
vt 0.000000 0.000000
vt 0.000000 0.000000
vt 0.000000 0.000000
vt 0.000000 0.000000
vt 0.000000 0.000000
vt 0.000000 0.000000
vt 0.000000 0.000000
vt 0.000000 0.000000
vt 0.000000 0.000000
vt 0.000000 0.000000
vt 0.000000 0.000000
vt 0.000000 0.000000
vt 0.000000 0.000000
vt 0.000000 0.000000
vt 0.000000 0.000000
vt 0.000000 0.000000
vt 0.000000 0.000000
vt 0.000000 0.000000
vt 0.000000 0.000000
vt 0.000000 0.000000
vt 0.000000 0.000000
vt 0.000000 0.000000
vt 0.000000 0.000000
vt 0.000000 0.000000
vt 0.000000 0.000000
vt 0.000000 0.000000
vt 0.000000 0.000000
vt 0.000000 0.000000
vt 0.000000 0.000000
vt 0.000000 0.000000
vt 0.000000 0.000000
vt 0.000000 0.000000
vt 0.000000 0.000000
vn 0.0183 -0.7550 0.6555
vn 0.0277 0.1258 0.9917
vn -0.0250 0.4466 -0.8944
vn 0.0138 -0.8684 0.4956
vn -0.0221 0.6126 -0.7901
vn 0.0088 -0.9485 0.3168
vn -0.0183 0.7550 -0.6555
vn 0.0035 -0.9921 0.1257
vn -0.0138 0.8684 -0.4956
vn -0.0020 -0.9975 -0.0702
vn -0.0088 0.9485 -0.3168
vn -0.0074 -0.9647 -0.2633
vn -0.0035 0.9921 -0.1257
vn -0.0125 -0.8947 -0.4464
vn 0.0020 0.9975 0.0702
vn -0.0171 -0.7904 -0.6123
vn 0.0074 0.9647 0.2633
vn -0.0211 -0.6557 -0.7547
vn 0.0125 0.8947 0.4464
vn -0.0242 -0.4958 -0.8681
vn 0.0279 -0.0702 0.9971
vn 0.0171 0.7904 0.6123
vn -0.0265 -0.3169 -0.9481
vn 0.0269 -0.2635 0.9643
vn 0.0211 0.6557 0.7547
vn -0.0277 -0.1258 -0.9917
vn 0.0250 -0.4466 0.8944
vn 0.0242 0.4958 0.8681
vn -0.0279 0.0702 -0.9971
vn 0.0221 -0.6126 0.7901
vn 0.0265 0.3169 0.9481
vn -0.0269 0.2635 -0.9643
vn 0.7730 -0.0000 0.6344
vn -0.0980 -0.0000 0.9952
vn -0.4714 0.0000 -0.8819
vn 0.8819 -0.0000 0.4714
vn -0.6344 0.0000 -0.7730
vn 0.9569 0.0000 0.2903
vn -0.7730 0.0000 -0.6344
vn 0.9952 0.0000 0.0980
vn -0.8819 -0.0000 -0.4714
vn 0.9952 0.0000 -0.0980
vn -0.9569 0.0000 -0.2903
vn 0.9569 0.0000 -0.2903
vn -0.9952 0.0000 -0.0980
vn 0.8819 0.0000 -0.4714
vn -0.9952 0.0000 0.0980
vn 0.7730 0.0000 -0.6344
vn -0.9569 0.0000 0.2903
vn 0.6344 -0.0000 -0.7730
vn -0.8819 0.0000 0.4714
vn 0.4714 0.0000 -0.8819
vn 0.0980 -0.0000 0.9952
vn -0.7730 -0.0000 0.6344
vn 0.2903 0.0000 -0.9569
vn 0.2903 0.0000 0.9569
vn -0.6344 -0.0000 0.7730
vn 0.0980 -0.0000 -0.9952
vn 0.4714 0.0000 0.8819
vn -0.4714 -0.0000 0.8819
vn -0.0980 0.0000 -0.9952
vn 0.6344 0.0000 0.7730
vn -0.2903 -0.0000 0.9569
vn -0.2903 0.0000 -0.9569
vn 0.6555 -0.7550 -0.0183
vn 0.9917 0.1258 -0.0277
vn -0.8944 0.4466 0.0250
vn 0.4956 -0.8684 -0.0138
vn -0.7901 0.6126 0.0221
vn 0.3168 -0.9485 -0.0088
vn -0.6555 0.7550 0.0183
vn 0.1257 -0.9921 -0.0035
vn -0.4956 0.8684 0.0138
vn -0.0702 -0.9975 0.0020
vn -0.3168 0.9485 0.0088
vn -0.2633 -0.9647 0.0074
vn -0.1257 0.9921 0.0035
vn -0.4464 -0.8947 0.0125
vn 0.0702 0.9975 -0.0020
vn -0.6123 -0.7904 0.0171
vn 0.2633 0.9647 -0.0074
vn -0.7547 -0.6557 0.0211
vn 0.4464 0.8947 -0.0125
vn -0.8681 -0.4958 0.0242
vn 0.9971 -0.0702 -0.0279
vn 0.6123 0.7904 -0.0171
vn -0.9481 -0.3169 0.0265
vn 0.9643 -0.2635 -0.0269
vn 0.7547 0.6557 -0.0211
vn -0.9917 -0.1258 0.0277
vn 0.8944 -0.4466 -0.0250
vn 0.8681 0.4958 -0.0242
vn -0.9971 0.0702 0.0279
vn 0.7901 -0.6126 -0.0221
vn 0.9481 0.3169 -0.0265
vn -0.9643 0.2635 0.0269
usemtl マテリアル
s off
f 6/1/1 5/2/1 37/3/1 38/4/1
f 1/5/2 32/6/2 64/7/2 33/8/2
f 20/9/3 19/10/3 51/11/3 52/12/3
f 7/13/4 6/1/4 38/4/4 39/14/4
f 21/15/5 20/9/5 52/12/5 53/16/5
f 8/17/6 7/13/6 39/14/6 40/18/6
f 22/19/7 21/15/7 53/16/7 54/20/7
f 9/21/8 8/17/8 40/18/8 41/22/8
f 23/23/9 22/19/9 54/20/9 55/24/9
f 10/25/10 9/21/10 41/22/10 42/26/10
f 24/27/11 23/23/11 55/24/11 56/28/11
f 11/29/12 10/25/12 42/26/12 43/30/12
f 25/31/13 24/27/13 56/28/13 57/32/13
f 12/33/14 11/29/14 43/30/14 44/34/14
f 26/35/15 25/31/15 57/32/15 58/36/15
f 13/37/16 12/33/16 44/34/16 45/38/16
f 27/39/17 26/35/17 58/36/17 59/40/17
f 14/41/18 13/37/18 45/38/18 46/42/18
f 28/43/19 27/39/19 59/40/19 60/44/19
f 15/45/20 14/41/20 46/42/20 47/46/20
f 2/47/21 1/5/21 33/8/21 34/48/21
f 29/49/22 28/43/22 60/44/22 61/50/22
f 16/51/23 15/45/23 47/46/23 48/52/23
f 3/53/24 2/47/24 34/48/24 35/54/24
f 30/55/25 29/49/25 61/50/25 62/56/25
f 17/57/26 16/51/26 48/52/26 49/58/26
f 4/59/27 3/53/27 35/54/27 36/60/27
f 31/61/28 30/55/28 62/56/28 63/62/28
f 18/63/29 17/57/29 49/58/29 50/64/29
f 5/2/30 4/59/30 36/60/30 37/3/30
f 32/6/31 31/61/31 63/62/31 64/7/31
f 19/10/32 18/63/32 50/64/32 51/11/32
f 70/65/33 69/66/33 101/67/33 102/68/33
f 65/69/34 96/70/34 128/71/34 97/72/34
f 84/73/35 83/74/35 115/75/35 116/76/35
f 71/77/36 70/65/36 102/68/36 103/78/36
f 85/79/37 84/73/37 116/76/37 117/80/37
f 72/81/38 71/77/38 103/78/38 104/82/38
f 86/83/39 85/79/39 117/80/39 118/84/39
f 73/85/40 72/81/40 104/82/40 105/86/40
f 87/87/41 86/83/41 118/84/41 119/88/41
f 74/89/42 73/85/42 105/86/42 106/90/42
f 88/91/43 87/87/43 119/88/43 120/92/43
f 75/93/44 74/89/44 106/90/44 107/94/44
f 89/95/45 88/91/45 120/92/45 121/96/45
f 76/97/46 75/93/46 107/94/46 108/98/46
f 90/99/47 89/95/47 121/96/47 122/100/47
f 77/101/48 76/97/48 108/98/48 109/102/48
f 91/103/49 90/99/49 122/100/49 123/104/49
f 78/105/50 77/101/50 109/102/50 110/106/50
f 92/107/51 91/103/51 123/104/51 124/108/51
f 79/109/52 78/105/52 110/106/52 111/110/52
f 66/111/53 65/69/53 97/72/53 98/112/53
f 93/113/54 92/107/54 124/108/54 125/114/54
f 80/115/55 79/109/55 111/110/55 112/116/55
f 67/117/56 66/111/56 98/112/56 99/118/56
f 94/119/57 93/113/57 125/114/57 126/120/57
f 81/121/58 80/115/58 112/116/58 113/122/58
f 68/123/59 67/117/59 99/118/59 100/124/59
f 95/125/60 94/119/60 126/120/60 127/126/60
f 82/127/61 81/121/61 113/122/61 114/128/61
f 69/66/62 68/123/62 100/124/62 101/67/62
f 96/70/63 95/125/63 127/126/63 128/71/63
f 83/74/64 82/127/64 114/128/64 115/75/64
f 134/129/65 133/130/65 165/131/65 166/132/65
f 129/133/66 160/134/66 192/135/66 161/136/66
f 148/137/67 147/138/67 179/139/67 180/140/67
f 135/141/68 134/129/68 166/132/68 167/142/68
f 149/143/69 148/137/69 180/140/69 181/144/69
f 136/145/70 135/141/70 167/142/70 168/146/70
f 150/147/71 149/143/71 181/144/71 182/148/71
f 137/149/72 136/145/72 168/146/72 169/150/72
f 151/151/73 150/147/73 182/148/73 183/152/73
f 138/153/74 137/149/74 169/150/74 170/154/74
f 152/155/75 151/151/75 183/152/75 184/156/75
f 139/157/76 138/153/76 170/154/76 171/158/76
f 153/159/77 152/155/77 184/156/77 185/160/77
f 140/161/78 139/157/78 171/158/78 172/162/78
f 154/163/79 153/159/79 185/160/79 186/164/79
f 141/165/80 140/161/80 172/162/80 173/166/80
f 155/167/81 154/163/81 186/164/81 187/168/81
f 142/169/82 141/165/82 173/166/82 174/170/82
f 156/171/83 155/167/83 187/168/83 188/172/83
f 143/173/84 142/169/84 174/170/84 175/174/84
f 130/175/85 129/133/85 161/136/85 162/176/85
f 157/177/86 156/171/86 188/172/86 189/178/86
f 144/179/87 143/173/87 175/174/87 176/180/87
f 131/181/88 130/175/88 162/176/88 163/182/88
f 158/183/89 157/177/89 189/178/89 190/184/89
f 145/185/90 144/179/90 176/180/90 177/186/90
f 132/187/91 131/181/91 163/182/91 164/188/91
f 159/189/92 158/183/92 190/184/92 191/190/92
f 146/191/93 145/185/93 177/186/93 178/192/93
f 133/130/94 132/187/94 164/188/94 165/131/94
f 160/134/95 159/189/95 191/190/95 192/135/95
f 147/138/96 146/191/96 178/192/96 179/139/96
